<svg xmlns="http://www.w3.org/2000/svg" width="18" height="18" viewBox="0 0 18 18">
  <g id="thailand" transform="translate(0 0.017)">
    <circle id="Ellipse_1" data-name="Ellipse 1" cx="9" cy="9" r="9" transform="translate(0 -0.017)" fill="#f0f0f0"/>
    <path id="Path_117" data-name="Path 117" d="M17.434,166.957H.56a9.03,9.03,0,0,0,0,6.259H17.434a9.03,9.03,0,0,0,0-6.259Z" transform="translate(0 -161.1)" fill="#0052b4"/>
    <g id="Group_3734" data-name="Group 3734" transform="translate(2.177 -0.011)">
      <path id="Path_118" data-name="Path 118" d="M68.759,0a8.976,8.976,0,0,0-6.82,3.129h13.64A8.976,8.976,0,0,0,68.759,0Z" transform="translate(-61.939)" fill="#d80027"/>
      <path id="Path_119" data-name="Path 119" d="M75.579,422.957H61.939a9,9,0,0,0,13.64,0Z" transform="translate(-61.939 -408.092)" fill="#d80027"/>
    </g>
  </g>
</svg>
